<?xml version="1.0" encoding="UTF-8" standalone="no"?>
<svg
   width="92"
   height="17"
   fill="none"
   version="1.1"
   id="svg12"
   sodipodi:docname="flowy_logo_text.svg"
   inkscape:version="1.4 (86a8ad7, 2024-10-11)"
   xmlns:inkscape="http://www.inkscape.org/namespaces/inkscape"
   xmlns:sodipodi="http://sodipodi.sourceforge.net/DTD/sodipodi-0.dtd"
   xmlns="http://www.w3.org/2000/svg"
   xmlns:svg="http://www.w3.org/2000/svg">
  <sodipodi:namedview
     id="namedview12"
     pagecolor="#ffffff"
     bordercolor="#000000"
     borderopacity="0.25"
     inkscape:showpageshadow="2"
     inkscape:pageopacity="0.0"
     inkscape:pagecheckerboard="0"
     inkscape:deskcolor="#d1d1d1"
     inkscape:zoom="13.650235"
     inkscape:cx="36.226483"
     inkscape:cy="4.3588993"
     inkscape:window-width="1920"
     inkscape:window-height="1009"
     inkscape:window-x="-8"
     inkscape:window-y="-8"
     inkscape:window-maximized="1"
     inkscape:current-layer="svg12" />
  <defs
     id="defs12">
    <clipPath
       id="prefix__clip0">
      <path
         fill="#fff"
         d="M0 0h92v17H0z"
         id="path12" />
    </clipPath>
    <clipPath
       id="e1c80f3f4b">
      <path
         d="m 154.80859,112.16797 h 63.75 v 106.5 h -63.75 z m 0,0"
         clip-rule="nonzero"
         id="path1-0" />
    </clipPath>
  </defs>
  <text
     xml:space="preserve"
     style="text-align:start;writing-mode:lr-tb;direction:ltr;text-anchor:start;fill:#000000"
     x="24.907995"
     y="13.333104"
     id="text12"><tspan
       sodipodi:role="line"
       id="tspan12"
       x="24.907995"
       y="13.333104">Incuboot</tspan></text>
  <g
     clip-path="url(#e1c80f3f4b)"
     id="g2"
     transform="matrix(0.14753696,0,0,0.13294872,-17.475423,-13.832107)"
     inkscape:transform-center-x="0.049661556"
     inkscape:transform-center-y="0.19830276">
    <path
       fill="#6c99d5"
       d="m 215.92969,139.67969 v 12.0625 h 2.79687 v -12.0625 z m -23.52344,7.43359 h 9.10547 v -2.80078 h -9.10547 z m -19.96484,0 h 9.10937 v -2.80078 h -9.10937 z m 8.875,6.40625 3.92187,-3.1875 c 0.90625,-0.73437 2.16797,-0.73437 3.07031,0 l 3.92578,3.1875 h 13.20313 v -15.61328 h -37.32813 v 15.61328 z m -13.41016,11.55078 h 37.73828 c 4.01172,0 7.28906,-3.27344 7.28906,-7.28906 v -24.13281 c 0,-4.01563 -3.27734,-7.29297 -7.28906,-7.29297 h -12.83594 v -3.27344 h -4.71093 v -4.01172 l 0.30468,-0.16015 c 1.1875,-0.61328 1.94141,-1.83594 1.94141,-3.17578 0,-1.96094 -1.60938,-3.56641 -3.57031,-3.56641 -1.96094,0 -3.57032,1.60937 -3.57032,3.57422 0,1.33594 0.75782,2.55859 1.94141,3.16797 l 0.30859,0.16015 v 4.01172 h -4.71093 v 3.27344 h -12.83594 c -4.01172,0 -7.29297,3.27734 -7.29297,7.29297 v 24.13281 c 0,4.01562 3.27734,7.28906 7.29297,7.28906 z m 3.51953,42.16797 h 0.66016 v -9.3125 h 29.38281 v 9.3125 h -29.38672 v 11.46875 h 5.05469 c 9.5,0 19,0 28.5039,0 4.01563,0 7.29297,-3.27344 7.29297,-7.28906 v -11.26172 c 0,-1.32813 -0.65234,-2.46484 -1.78906,-3.14063 l -4.00781,-2.37109 c -0.75781,-0.44922 -1.19531,-1.21094 -1.19531,-2.09375 0,-0.88672 0.43359,-1.64844 1.19531,-2.09766 l 4.00781,-2.37109 c 1.14453,-0.67187 1.79297,-1.8125 1.79297,-3.13672 v -7.78906 c 0,-4.01563 -3.28125,-7.28906 -7.29297,-7.28906 h -37.73828 c -4.01172,0 -7.29297,-0.20313 -7.29297,3.8164 v 33.55469 z m -13.80469,-55.49609 v -12.0625 h -2.80078 v 12.0625 z m 0,0"
       fill-opacity="1"
       fill-rule="evenodd"
       id="path2-9" />
  </g>
</svg>
